#N canvas 177 139 1589 776 10;
#X obj -52 410 biquad~;
#X obj -190 404 biquad~;
#X obj -191 596 +~;
#X obj -191 31 inlet~;
#X obj -190 787 outlet~;
#X obj -12 341 t b f;
#X text 27 340 bandwidth;
#X text -48 352 f;
#X obj -158 336 t b f;
#X text -183 211 f;
#X text -112 336 slope;
#X obj 445 410 biquad~;
#X obj 483 339 t b f;
#X text 453 350 f;
#X obj 285 402 biquad~;
#X obj 325 330 t b f;
#X text 404 348 bandwidth;
#X text 290 348 f;
#X obj 292 374 equalizer 2050 50 250;
#X obj 455 376 highshelf 4900 50 2;
#X obj -180 373 lowshelf 110 50 2;
#X floatatom 329 61 0 0 0 0 - - -;
#X floatatom 327 152 0 0 0 0 - - -;
#X obj 524 334 trigger bang float;
#X obj 561 417 biquad~;
#X obj 332 37 hsl 128 17 20 20000 1 1 empty empty frequency 5 9 0 10
-203904 -1 -1 0 0;
#X obj 330 130 hsl 128 17 0 100 0 1 empty empty gain 5 9 0 10 -204786
-1 -1 0 0;
#X floatatom 328 104 0 0 0 0 - - -;
#X obj 664 334 trigger bang float;
#X obj 331 82 hsl 128 17 0 100 0 1 empty empty bandwidth 5 9 0 10 -261682
-1 -1 0 0;
#X obj 595 374 equalizer 5000 70 8;
#X obj -46 378 equalizer 400 50 250;
#X obj 121 409 biquad~;
#X obj 161 340 t b f;
#X text 200 339 bandwidth;
#X text 125 351 f;
#X obj 126 377 equalizer 900 50 250;
#X obj -191 618 /~ 6;
#X obj 114 46 vsl 21 100 0 127 0 0 empty empty 110 0 -9 0 10 -204786
-1 -1 3898 1;
#X floatatom 114 151 0 0 0 0 - - -;
#X obj 150 45 vsl 21 100 0 127 0 0 empty empty 400 0 -9 0 10 -204786
-1 -1 3898 1;
#X floatatom 150 150 0 0 0 0 - - -;
#X obj 186 46 vsl 21 100 0 127 0 0 empty empty 900 0 -9 0 10 -204786
-1 -1 3898 1;
#X floatatom 186 151 0 0 0 0 - - -;
#X obj 224 45 vsl 21 100 0 127 0 0 empty empty 2050 0 -9 0 10 -204786
-1 -1 3898 1;
#X floatatom 224 150 0 0 0 0 - - -;
#X obj 265 46 vsl 21 100 0 127 0 0 empty empty 4900 0 -9 0 10 -204786
-1 -1 3898 1;
#X floatatom 265 151 0 0 0 0 - - -;
#X obj 1000 500 biquad~;
#X obj 862 494 biquad~;
#X obj 862 579 +~;
#X obj 862 14 inlet~;
#X obj 862 634 outlet~;
#X obj 1040 431 t b f;
#X text 1079 430 bandwidth;
#X text 1004 442 f;
#X obj 894 426 t b f;
#X text 669 334 f;
#X text 940 426 slope;
#X obj 1497 500 biquad~;
#X obj 1535 429 t b f;
#X text 1505 440 f;
#X obj 1337 492 biquad~;
#X obj 1377 420 t b f;
#X text 1456 438 bandwidth;
#X text 1342 438 f;
#X obj 1344 464 equalizer 2050 50 250;
#X obj 1507 466 highshelf 4900 50 2;
#X obj 872 463 lowshelf 110 50 2;
#X floatatom 715 59 0 0 0 0 - - -;
#X floatatom 713 150 0 0 0 0 - - -;
#X obj 1708 421 trigger bang float;
#X obj 1613 507 biquad~;
#X obj 718 35 hsl 128 17 20 20000 1 1 empty empty frequency 5 9 0 10
-203904 -1 -1 1200 0;
#X obj 716 128 hsl 128 17 0 100 0 1 empty empty gain 5 9 0 10 -204786
-1 -1 0 0;
#X floatatom 714 102 0 0 0 0 - - -;
#X obj 1848 421 trigger bang float;
#X obj 717 80 hsl 128 17 0 100 0 1 empty empty bandwidth 5 9 0 10 -261682
-1 -1 10300 0;
#X obj 1647 464 equalizer 5000 70 8;
#X obj 1006 468 equalizer 400 50 250;
#X obj 1173 499 biquad~;
#X obj 1213 430 t b f;
#X text 1252 429 bandwidth;
#X text 1177 441 f;
#X obj 1178 467 equalizer 900 50 250;
#X obj 862 601 /~ 6;
#X obj 500 44 vsl 21 100 0 127 0 0 empty empty 110 0 -9 0 10 -204786
-1 -1 0 1;
#X floatatom 500 149 0 0 0 0 - - -;
#X obj 536 43 vsl 21 100 0 127 0 0 empty empty 400 0 -9 0 10 -204786
-1 -1 0 1;
#X floatatom 536 148 0 0 0 0 - - -;
#X obj 572 44 vsl 21 100 0 127 0 0 empty empty 900 0 -9 0 10 -204786
-1 -1 0 1;
#X floatatom 572 149 0 0 0 0 - - -;
#X obj 610 43 vsl 21 100 0 127 0 0 empty empty 2050 0 -9 0 10 -204786
-1 -1 0 1;
#X floatatom 610 148 0 0 0 0 - - -;
#X obj 651 44 vsl 21 100 0 127 0 0 empty empty 4900 0 -9 0 10 -204786
-1 -1 0 1;
#X floatatom 651 149 0 0 0 0 - - -;
#X msg 295 29 50;
#X obj 295 98 bng 15 250 50 0 empty empty 50 17 7 0 10 -4034 -258113
-1;
#X text 336 16 Choose EQ frequency;
#X obj 295 5 loadbang;
#X connect 0 0 2 0;
#X connect 1 0 2 0;
#X connect 2 0 37 0;
#X connect 3 0 0 0;
#X connect 3 0 1 0;
#X connect 3 0 14 0;
#X connect 3 0 11 0;
#X connect 3 0 32 0;
#X connect 3 0 24 0;
#X connect 5 0 31 0;
#X connect 5 1 31 1;
#X connect 8 0 20 0;
#X connect 8 1 20 1;
#X connect 11 0 2 0;
#X connect 12 0 19 0;
#X connect 12 1 19 1;
#X connect 14 0 2 0;
#X connect 15 0 18 0;
#X connect 15 1 18 1;
#X connect 18 0 14 0;
#X connect 19 0 11 0;
#X connect 20 0 1 0;
#X connect 21 0 30 0;
#X connect 21 0 69 0;
#X connect 22 0 23 0;
#X connect 22 0 70 0;
#X connect 23 0 30 0;
#X connect 23 1 30 1;
#X connect 24 0 2 0;
#X connect 25 0 21 0;
#X connect 26 0 22 0;
#X connect 27 0 28 0;
#X connect 27 0 75 0;
#X connect 28 0 30 0;
#X connect 28 1 30 2;
#X connect 29 0 27 0;
#X connect 30 0 24 0;
#X connect 31 0 0 0;
#X connect 32 0 2 0;
#X connect 33 0 36 0;
#X connect 33 1 36 1;
#X connect 36 0 32 0;
#X connect 37 0 4 0;
#X connect 38 0 39 0;
#X connect 39 0 8 0;
#X connect 39 0 87 0;
#X connect 40 0 41 0;
#X connect 41 0 5 0;
#X connect 41 0 89 0;
#X connect 42 0 43 0;
#X connect 43 0 33 0;
#X connect 43 0 91 0;
#X connect 44 0 45 0;
#X connect 45 0 15 0;
#X connect 45 0 93 0;
#X connect 46 0 47 0;
#X connect 47 0 12 0;
#X connect 47 0 95 0;
#X connect 48 0 50 0;
#X connect 49 0 50 0;
#X connect 50 0 85 0;
#X connect 51 0 48 0;
#X connect 51 0 49 0;
#X connect 51 0 62 0;
#X connect 51 0 59 0;
#X connect 51 0 80 0;
#X connect 51 0 72 0;
#X connect 53 0 79 0;
#X connect 53 1 79 1;
#X connect 56 0 68 0;
#X connect 56 1 68 1;
#X connect 59 0 50 0;
#X connect 60 0 67 0;
#X connect 60 1 67 1;
#X connect 62 0 50 0;
#X connect 63 0 66 0;
#X connect 63 1 66 1;
#X connect 66 0 62 0;
#X connect 67 0 59 0;
#X connect 68 0 49 0;
#X connect 69 0 78 0;
#X connect 70 0 71 0;
#X connect 71 0 78 0;
#X connect 71 1 78 1;
#X connect 72 0 50 0;
#X connect 73 0 69 0;
#X connect 74 0 70 0;
#X connect 75 0 76 0;
#X connect 76 0 78 0;
#X connect 76 1 78 2;
#X connect 77 0 75 0;
#X connect 78 0 72 0;
#X connect 79 0 48 0;
#X connect 80 0 50 0;
#X connect 81 0 84 0;
#X connect 81 1 84 1;
#X connect 84 0 80 0;
#X connect 85 0 52 0;
#X connect 86 0 87 0;
#X connect 87 0 56 0;
#X connect 88 0 89 0;
#X connect 89 0 53 0;
#X connect 90 0 91 0;
#X connect 91 0 81 0;
#X connect 92 0 93 0;
#X connect 93 0 63 0;
#X connect 94 0 95 0;
#X connect 95 0 60 0;
#X connect 96 0 38 0;
#X connect 96 0 40 0;
#X connect 96 0 42 0;
#X connect 96 0 44 0;
#X connect 96 0 46 0;
#X connect 97 0 96 0;
#X connect 99 0 96 0;
#X coords 0 -1 1 1 380 170 1 100 10;
