#N canvas 6 60 1908 992 10;
#X obj -4 -1 cnv 15 1920 1080 empty empty empty 20 12 0 14 -1 -66577
0;
#X obj 3 3 cnv 15 1888 1000 empty empty ∏_Stream_mixer_reStreamer
20 20 0 24 -233017 -66577 0;
#X obj 43 656 cnv 15 100 60 empty empty empty 20 12 0 14 -233017 -66577
0;
#X obj 1743 1002 cnv 15 100 60 empty empty empty 20 12 0 14 -233017
-66577 0;
#X obj 1753 1012 cnv 15 100 60 empty empty empty 20 12 0 14 -233017
-66577 0;
#X obj 1763 1022 cnv 15 100 60 empty empty empty 20 12 0 14 -233017
-66577 0;
#X obj 603 23 loadbang;
#X msg 603 43 \; pd dsp 1 \;;
#X msg 25 84 http://stream.p-node.org/piday.mp3;
#X obj 383 664 scope;
#X msg 25 48 http://stream.p-node.org/dab.mp3;
#X obj 24 627 reStream;
#X obj 523 696 env~;
#X floatatom 522 716 5 0 0 0 - - -;
#X msg 422 963 print;
#X msg 424 916 start;
#X msg 423 941 stop;
#X obj 302 977 writesf~ 2;
#X msg 25 100 http://labomedia.org:8000/coma;
#X obj 526 182 input 1 2;
#X obj 26 124 streamplayer;
#X obj 25 941 dac~ 1;
#X obj 195 943 dac~ 2;
#X msg 343 519 streamname mountpoint password server port genre;
#X text 146 518 To add a new mountpoint \, give :;
#X msg 302 85 http://stream.p-node.org/piday.mp3;
#X msg 302 49 http://stream.p-node.org/dab.mp3;
#X obj 303 125 streamplayer;
#X msg 302 101 http://labomedia.org:8000/b01d.ogg;
#X text 464 916 start recording audio;
#X text 462 942 stop recording audio;
#X msg 423 895 open \$1;
#X obj 423 875 makefilename restream%d.wav;
#X obj 424 794 tgl 32 0 empty empty Rec 0 -12 0 16 -258113 -4034 -1
0 1;
#X obj 424 831 sel 0 1;
#X obj 527 837 t b b;
#X obj 423 854 random 100000;
#X obj 937 509 4band;
#X msg 25 68 http://stream.p-node.org/kernel-lecture.ogg;
#X msg 302 69 http://stream.p-node.org/kernel-lecture.ogg;
#X msg 747 84 http://stream.p-node.org/piday.mp3;
#X msg 747 48 http://stream.p-node.org/dab.mp3;
#X obj 748 124 streamplayer;
#X msg 747 100 http://labomedia.org:8000/b01d.ogg;
#X msg 747 68 http://stream.p-node.org/kernel-lecture.ogg;
#X msg 1024 85 http://stream.p-node.org/piday.mp3;
#X msg 1024 49 http://stream.p-node.org/dab.mp3;
#X obj 1025 125 streamplayer;
#X msg 1024 101 http://labomedia.org:8000/b01d.ogg;
#X msg 1024 69 http://stream.p-node.org/kernel-lecture.ogg;
#X text 174 551 To start streaming \, click :;
#X text 746 7 To play a stream \, click on one of the message below
(or create a new one) \, possible aussi to play an audio file with
button "open" or threw a message with the path to the file;
#X obj 26 452 throw~ streamL;
#X obj 121 452 throw~ streamR;
#X obj 25 599 catch~ streamL;
#X obj 194 600 catch~ streamR;
#X obj 303 453 throw~ streamL;
#X obj 398 453 throw~ streamR;
#X obj 749 452 throw~ streamL;
#X obj 844 452 throw~ streamR;
#X obj 525 424 throw~ streamL;
#X obj 621 424 throw~ streamR;
#X obj 1045 704 throw~ streamL;
#X obj 1140 704 throw~ streamR;
#X text 966 479 Possible to use this EQ : connect it to a streamplayer
output at the place of throw~ StreamR et StreamG;
#X msg 346 552 b01d b01.ogg ***** stream.p-node.org 80 Hidden;
#X connect 6 0 7 0;
#X connect 8 0 20 0;
#X connect 10 0 20 0;
#X connect 11 0 17 0;
#X connect 11 0 21 0;
#X connect 11 1 17 1;
#X connect 11 1 22 0;
#X connect 12 0 13 0;
#X connect 14 0 17 0;
#X connect 15 0 17 0;
#X connect 16 0 17 0;
#X connect 18 0 20 0;
#X connect 19 0 60 0;
#X connect 19 1 61 0;
#X connect 20 0 52 0;
#X connect 20 1 53 0;
#X connect 25 0 27 0;
#X connect 26 0 27 0;
#X connect 27 0 56 0;
#X connect 27 1 57 0;
#X connect 28 0 27 0;
#X connect 31 0 17 0;
#X connect 32 0 31 0;
#X connect 33 0 34 0;
#X connect 34 0 16 0;
#X connect 34 1 35 0;
#X connect 35 0 15 0;
#X connect 35 1 36 0;
#X connect 36 0 32 0;
#X connect 37 0 62 0;
#X connect 37 1 63 0;
#X connect 38 0 20 0;
#X connect 39 0 27 0;
#X connect 40 0 42 0;
#X connect 41 0 42 0;
#X connect 42 0 58 0;
#X connect 42 1 59 0;
#X connect 43 0 42 0;
#X connect 44 0 42 0;
#X connect 45 0 47 0;
#X connect 46 0 47 0;
#X connect 47 0 37 0;
#X connect 47 2 37 1;
#X connect 48 0 47 0;
#X connect 49 0 47 0;
#X connect 54 0 11 0;
#X connect 55 0 11 1;
#X connect 65 0 11 2;
