#N canvas 6 56 1908 994 10;
#X obj 101 120 cnv 15 198 208 empty empty Audio_in 46 18 0 18 -162280
-99865 0;
#X obj 231 180 vsl 32 120 0 1.4 0 0 empty empty Vol 0 -10 0 12 -258753
-4034 -1 0 0;
#X floatatom 231 306 5 0 0 0 - - -;
#X obj 231 327 s \$0-v;
#X obj -55 564 r \$0-v;
#X text 8 504 env;
#X obj -82 658 *~;
#X obj -25 658 *~;
#X obj 118 181 vu 16 120 foo7_rcv Vu-inL 0 -12 0 12 -1 -355 1 0;
#X floatatom 107 307 4 0 0 0 - - -;
#X floatatom 134 307 4 0 0 0 - - -;
#X obj 84 485 env~ 16384 8192;
#X obj 45 488 env~;
#X obj 48 469 - 90;
#X obj 86 466 - 90;
#X obj 319 300 line;
#X msg 319 249 0;
#X msg 318 195 1;
#X msg 324 220 0.8;
#X msg 318 278 \$1 100;
#X obj 175 181 vu 16 120 foo7_rcv Vu-inR 0 -12 0 12 -1 -258113 1 0
;
#X obj 236 487 env~ 16384 8192;
#X obj 192 487 env~;
#X obj 201 466 - 90;
#X obj 240 466 - 90;
#X obj -25 504 *~ 1;
#X obj -82 509 *~ 1;
#X obj -82 704 outlet~ LEFT;
#X obj 0 704 outlet~ RIGHT;
#X obj -54 600 / 1;
#X floatatom -67 541 5 0 0 0 - - -;
#X obj -81 145 adc~ \$1 \$2;
#X obj 274 196 bng 15 250 50 0 empty empty 1 17 7 0 10 -262144 -258113
-1;
#X obj 276 290 bng 15 250 50 0 empty empty 0 18 8 0 10 -33289 -258113
-1;
#X obj 275 232 bng 15 250 50 0 empty empty 0_8 17 7 0 10 -191407 -258113
-1;
#X floatatom 163 307 4 0 0 0 - - -;
#X floatatom 190 307 4 0 0 0 - - -;
#X obj 231 708 outlet;
#X connect 1 0 2 0;
#X connect 2 0 3 0;
#X connect 2 0 37 0;
#X connect 4 0 29 0;
#X connect 6 0 27 0;
#X connect 6 0 12 0;
#X connect 6 0 11 0;
#X connect 7 0 28 0;
#X connect 7 0 22 0;
#X connect 7 0 21 0;
#X connect 8 0 9 0;
#X connect 8 1 10 0;
#X connect 11 0 14 0;
#X connect 12 0 13 0;
#X connect 13 0 8 0;
#X connect 14 0 8 1;
#X connect 15 0 1 0;
#X connect 16 0 19 0;
#X connect 17 0 19 0;
#X connect 18 0 19 0;
#X connect 19 0 15 0;
#X connect 20 0 35 0;
#X connect 20 1 36 0;
#X connect 21 0 24 0;
#X connect 22 0 23 0;
#X connect 23 0 20 0;
#X connect 24 0 20 1;
#X connect 25 0 7 0;
#X connect 26 0 6 0;
#X connect 29 0 6 1;
#X connect 29 0 7 1;
#X connect 30 0 6 1;
#X connect 31 0 26 0;
#X connect 31 1 25 0;
#X connect 32 0 17 0;
#X connect 33 0 16 0;
#X connect 34 0 18 0;
#X coords 0 -1 1 1 200 230 1 100 100;
