#N canvas 742 61 1008 881 10;
#X obj 56 532 *~;
#X obj 97 532 *~;
#X obj 55 645 outlet~ LEFT;
#X obj 143 647 outlet~ RIGHT;
#X obj 57 21 inlet~ LEFT;
#X obj 145 20 inlet~ RIGHT;
#X obj 746 506 cnv 30 550 100 empty empty Oggcast 20 12 0 18 -195568
-66577 0;
#X obj 1009 380 tgl 20 0 stream rereconnect STREAM 0 -6 0 8 -12227
-1 -1 0 1;
#X obj 1195 206 cnv 15 100 120 empty empty empty 20 12 0 14 -195568
-66577 0;
#X obj 53 67 cnv 15 344 280 empty empty Stream_out 100 20 0 18 -99865
-162280 0;
#N canvas 86 299 522 372 oggcast 0;
#X coords 0 -1 1 1 200 60 1 100 100;
#X restore 828 543 pd oggcast;
#N canvas 933 141 894 656 settings 0;
#X msg -31 -297 \; oggcast disconnect;
#X obj -178 -371 select 1;
#X obj -375 -29 r reconnect;
#X obj -374 -6 bng 15 250 50 0 empty empty empty 0 -6 0 8 -262144 -1
-1;
#X obj -54 -358 t b b b;
#X msg -11 -335 \; auto-reconnect 0;
#X obj -339 -224 makefilename %s.ogg;
#X obj -317 -196 symbol;
#X obj -291 -339 t b b b b b;
#X obj -310 -150 s url?;
#X obj -376 15 symbol;
#X obj 18 -173 pack s s s;
#X symbolatom 105 130 12 0 0 2 stream-name - -;
#X symbolatom 104 166 12 0 0 2 your-name - -;
#X symbolatom 105 199 12 0 0 2 location - -;
#X msg -37 86 set \$1;
#X obj -37 127 symbol;
#X msg -37 147 set \$1;
#X obj -37 188 symbol;
#X msg -38 211 set \$1;
#X obj -38 252 symbol;
#X obj -218 -369 tgl 15 0 empty stream empty 0 -6 0 8 -262144 -1 -1
0 1;
#X obj 7 48 loadbang;
#X msg -339 -287 set \$1;
#X msg -339 -266 float;
#X obj -339 -246 symbol;
#X msg -37 106 float;
#X msg -37 167 01b;
#X msg -37 231 float;
#X msg 18 -100 \; oggcast TITLE \$1 \, ARTIST \$2 \, PERFORMER no01
\, DESCRIPTION \$3 \, GENRE 1.1011e+07 \, LOCATION \$1 \, COPYRIGHT
none \, CONTACT nohate \, DATE nov19;
#X msg -351 191 \; oggcast server 1 \; oggcast passwd rclabo01 \; oggcast
vbr 44100 2 0.6 \; oggcast connect labomedia.org \$1 8000 \; auto-reconnect
1 \;;
#X msg -376 38 \; oggcast disconnect \; oggcast connect stream. \$1
80 \;;
#X obj -306 -173 makefilename http://labomedia.org/%s;
#X msg -280 96 \; oggcast server 1 \; oggcast passwd 107MHzFM \; oggcast
vbr 44100 2 0.6 \; oggcast connect stream.p-node.org \$1 80 \; auto-reconnect
1 \;;
#X msg 112 -14 \; oggcast server 1 \; oggcast passwd hackme \; oggcast
vbr 44100 2 0.6 \; oggcast connect radio.calafou diktat.ogg 8000 \;
auto-reconnect 1 \;;
#X msg -260 -78 \; oggcast server 1 \; oggcast passwd 107MHzFM \; oggcast
vbr 44100 2 0.6 \; oggcast connect stream.p-node.org b01.ogg 80 \;
auto-reconnect 1 \;;
#X connect 1 0 8 0;
#X connect 1 1 4 0;
#X connect 2 0 3 0;
#X connect 3 0 10 0;
#X connect 4 1 0 0;
#X connect 4 2 5 0;
#X connect 6 0 7 0;
#X connect 6 0 10 1;
#X connect 7 0 32 0;
#X connect 7 0 30 0;
#X connect 8 1 24 0;
#X connect 8 2 13 0;
#X connect 8 3 12 0;
#X connect 10 0 31 0;
#X connect 11 0 29 0;
#X connect 12 0 11 0;
#X connect 12 0 15 0;
#X connect 12 0 23 0;
#X connect 13 0 11 1;
#X connect 13 0 17 0;
#X connect 14 0 11 2;
#X connect 14 0 19 0;
#X connect 15 0 26 0;
#X connect 16 0 12 0;
#X connect 17 0 27 0;
#X connect 18 0 13 0;
#X connect 19 0 28 0;
#X connect 20 0 14 0;
#X connect 21 0 1 0;
#X connect 22 0 27 0;
#X connect 22 0 26 0;
#X connect 22 0 28 0;
#X connect 23 0 24 0;
#X connect 24 0 25 0;
#X connect 25 0 6 0;
#X connect 26 0 16 0;
#X connect 27 0 18 0;
#X connect 28 0 20 0;
#X connect 32 0 9 0;
#X coords 0 -1 1 1 100 120 1 100 100;
#X restore 1091 467 pd settings;
#X obj 82 459 r \$0-v;
#X obj 82 494 / 1;
#X floatatom 165 127 0 0 0 2 pages-sent - -;
#X floatatom 119 127 5 0 0 2 state - -;
#X symbolatom 255 136 0 0 0 2 stream-name - -;
#X symbolatom 255 172 0 0 0 2 mountpoint - -;
#X symbolatom 256 205 0 0 0 2 pwd - -;
#X symbolatom 256 238 0 0 0 2 server - -;
#X msg 337 513 disconnect;
#X obj 255 19 inlet;
#X floatatom 255 272 0 0 0 2 Port - -;
#X obj 269 551 pdogg/oggcast~ 2 512;
#X msg 288 471 passwd \$3;
#X obj 269 400 t a a a;
#X obj 513 32 bng 15 250 50 0 empty empty empty 17 7 0 10 -262144 -1
-1;
#X obj -101 187 f;
#X obj -74 186 + 1;
#X obj 80 150 tgl 18 0 empty empty AutoR 20 10 0 10 -262144 -1 -1 0
1;
#X obj -101 282 sel 1;
#X obj -193 187 t b;
#X msg -139 163 0;
#X obj -101 256 change;
#X obj -99 311 t b b;
#X floatatom -101 212 5 0 0 0 - - -;
#X obj -101 161 metro 200;
#X obj -101 233 > 10;
#X obj 69 111 tgl 39 0 empty empty Stream_on -8 -10 0 14 -4034 -258113
-1 0 1;
#X msg -99 336 1;
#X obj 321 371 sel 1;
#X obj -15 140 change;
#X msg 269 492 connect \$4 \$2 \$5;
#X msg -15 119 set \$1;
#X msg 521 462 server 0;
#X msg 523 524 connect stream.p-node.org live.ogg 8005;
#X obj 180 184 vsl 32 120 0 1.4 0 0 empty empty Vol 0 -10 0 12 -258753
-4034 -1 0 0;
#X floatatom 180 310 5 0 0 0 - - -;
#X obj 180 331 s \$0-v;
#X obj 127 186 vu 16 120 foo7_rcv Vu-out 0 -12 0 12 -1 -355 1 0;
#X floatatom 116 312 4 0 0 0 - - -;
#X floatatom 143 312 4 0 0 0 - - -;
#X obj -62 425 env~ 16384 8192;
#X obj -101 428 env~;
#X obj -98 409 - 90;
#X obj -60 406 - 90;
#X obj 216 200 bng 15 250 50 0 empty empty 1 17 7 0 10 -262144 -258113
-1;
#X obj 218 294 bng 15 250 50 0 empty empty 0 18 8 0 10 -33289 -258113
-1;
#X obj 216 430 line;
#X msg 217 388 0;
#X msg 217 345 1;
#X msg 216 367 0.8;
#X obj 217 236 bng 15 250 50 0 empty empty 0_8 17 7 0 10 -191407 -258113
-1;
#X msg 216 409 \$1 100;
#X obj 72 186 vu 16 120 foo7_rcv Vu-in 0 -12 0 12 -1 -258113 1 0;
#X obj -62 388 env~ 16384 8192;
#X obj -106 388 env~;
#X obj -97 367 - 90;
#X obj -58 367 - 90;
#X floatatom 62 312 4 0 0 0 - - -;
#X floatatom 89 312 4 0 0 0 - - -;
#X msg 514 0 streamname mountpoint password server port genre;
#X obj 255 99 unpack s s s s f s;
#X symbolatom 256 305 0 0 0 2 genre - -;
#X obj 468 170 symbol;
#X obj 467 192 symbol;
#X obj 466 212 symbol;
#X obj 466 232 symbol;
#X obj 466 255 f;
#X obj 466 276 symbol;
#X obj 470 386 pack s s s s f s;
#X msg 308 426 TITLE \$1 \, ARTIST \$1 \, PERFORMER \$1 \, DESCRIPTION
\$1 \, GENRE \$6 \, LOCATION \$1 \, COPYRIGHT GPL \, CONTACT p-node.org
\, DATE 20;
#X obj 513 58 t b b b b b b;
#X text 538 31 Reconnect previous stream;
#X obj 244 604 print oggconnect;
#X obj 244 648 outlet;
#X obj 144 152 bng 15 250 50 0 empty empty disconnect 17 7 0 10 -258113
-262144 -1;
#X msg 522 481 user ****;
#X msg 523 501 passwd ****;
#X connect 0 0 2 0;
#X connect 0 0 23 0;
#X connect 0 0 53 0;
#X connect 0 0 52 0;
#X connect 1 0 3 0;
#X connect 1 0 23 1;
#X connect 4 0 0 0;
#X connect 4 0 66 0;
#X connect 4 0 65 0;
#X connect 5 0 1 0;
#X connect 12 0 13 0;
#X connect 13 0 0 1;
#X connect 13 0 1 1;
#X connect 14 0 31 0;
#X connect 15 0 41 0;
#X connect 16 0 74 0;
#X connect 17 0 75 0;
#X connect 18 0 76 0;
#X connect 19 0 77 0;
#X connect 20 0 23 0;
#X connect 21 0 72 0;
#X connect 22 0 78 0;
#X connect 23 0 15 0;
#X connect 23 0 85 0;
#X connect 23 1 14 0;
#X connect 24 0 23 0;
#X connect 25 0 42 0;
#X connect 25 1 24 0;
#X connect 25 2 81 0;
#X connect 26 0 82 0;
#X connect 27 0 28 0;
#X connect 27 0 35 0;
#X connect 28 0 27 1;
#X connect 29 0 36 0;
#X connect 30 0 34 0;
#X connect 31 0 32 0;
#X connect 32 0 27 1;
#X connect 33 0 30 0;
#X connect 34 0 39 0;
#X connect 34 1 32 0;
#X connect 35 0 37 0;
#X connect 36 0 27 0;
#X connect 37 0 33 0;
#X connect 38 0 40 0;
#X connect 39 0 26 0;
#X connect 40 0 26 0;
#X connect 40 1 20 0;
#X connect 41 0 43 0;
#X connect 42 0 23 0;
#X connect 42 0 84 0;
#X connect 43 0 38 0;
#X connect 44 0 23 0;
#X connect 45 0 23 0;
#X connect 46 0 47 0;
#X connect 47 0 48 0;
#X connect 49 0 50 0;
#X connect 49 1 51 0;
#X connect 52 0 55 0;
#X connect 53 0 54 0;
#X connect 54 0 49 0;
#X connect 55 0 49 1;
#X connect 56 0 60 0;
#X connect 57 0 59 0;
#X connect 58 0 46 0;
#X connect 59 0 63 0;
#X connect 60 0 63 0;
#X connect 61 0 63 0;
#X connect 62 0 61 0;
#X connect 63 0 58 0;
#X connect 64 0 69 0;
#X connect 64 1 70 0;
#X connect 65 0 68 0;
#X connect 66 0 67 0;
#X connect 67 0 64 0;
#X connect 68 0 64 1;
#X connect 72 0 16 0;
#X connect 72 1 17 0;
#X connect 72 2 18 0;
#X connect 72 3 19 0;
#X connect 72 4 22 0;
#X connect 72 5 73 0;
#X connect 73 0 79 0;
#X connect 74 0 80 0;
#X connect 75 0 80 1;
#X connect 76 0 80 2;
#X connect 77 0 80 3;
#X connect 78 0 80 4;
#X connect 79 0 80 5;
#X connect 80 0 25 0;
#X connect 81 0 23 0;
#X connect 82 0 74 0;
#X connect 82 1 75 0;
#X connect 82 2 76 0;
#X connect 82 3 77 0;
#X connect 82 4 78 0;
#X connect 82 5 79 0;
#X connect 86 0 20 0;
#X connect 87 0 23 0;
#X connect 88 0 23 0;
#X coords 0 -1 1 1 350 300 1 50 50;
