#N canvas 398 128 1347 830 10;
#X obj 101 119 cnv 15 198 300 empty empty empty 20 12 0 14 -191407
-66577 0;
#X obj 217 275 vsl 32 120 0 1.4 0 0 empty empty Vol 0 -10 0 12 -258753
-4034 -1 8500 0;
#X msg 108 204 play;
#X msg 189 203 pause;
#X msg -30 242 speed \$1;
#X floatatom 108 236 5 0 0 2 speed - -;
#X msg 35 243 1;
#X floatatom 217 401 5 0 0 0 - - -;
#X msg 30 146 open \$1;
#X obj 30 118 openpanel;
#X obj 107 149 bng 15 250 50 0 empty empty Open 17 7 0 10 -262144 -1
-1;
#X msg 148 203 stop;
#X msg 64 244 0.21;
#X floatatom 104 404 5 0 0 0 - - -;
#X floatatom 249 150 6 0 0 0 - - -;
#X floatatom 153 149 5 0 0 0 - - -;
#X floatatom 185 149 5 0 0 0 - - -;
#X obj 231 191 bng 21 250 50 0 empty empty empty 17 7 0 10 -262144
-1 -1;
#X obj 109 444 route ready samplerate length cache float bang;
#X floatatom 217 150 5 0 0 0 - - -;
#X msg 167 467 time_seek \$1;
#X obj 252 402 s \$0-v;
#X obj 59 641 r \$0-v;
#X obj 33 482 readanysf~ 2 32 256;
#X obj 143 236 bng 15 250 50 0 empty empty 1 17 7 0 10 -204786 -1 -1
;
#X obj 170 236 bng 15 250 50 0 empty empty 0_21 17 7 0 10 -261682 -1
-1;
#X obj 108 182 bng 32 250 50 0 empty empty Play 0 -8 0 10 -4034 -258113
-1;
#X obj 150 182 bng 32 250 50 0 empty empty Stop 0 -8 0 10 -258113 -262144
-1;
#X obj 191 182 bng 32 250 50 0 empty empty Pause 0 -8 0 10 -261234
-262144 -1;
#X msg 49 443 loop \$1;
#X obj 217 236 tgl 15 0 empty empty empty 17 7 0 10 -262144 -1 -1 0
1;
#X text 149 135 ready;
#X text 184 135 cache;
#X text 229 169 end;
#X obj 6 39 inlet;
#X text 122 581 env;
#X floatatom 161 426 0 0 0 0 - - -;
#X obj 107 426 hsl 50 14 0 7.368e+06 0 0 empty empty empty -2 -8 0
10 -260818 -1 -1 900 1;
#X text 40 425 time seek;
#X symbolatom 103 120 32 0 0 0 - - -;
#X obj 32 735 *~;
#X obj 89 735 *~;
#X obj 164 277 vu 16 120 foo7_rcv Vu-out 0 -12 0 12 -1 -355 1 0;
#X floatatom 153 403 4 0 0 0 - - -;
#X floatatom 180 403 4 0 0 0 - - -;
#X obj 198 562 env~ 16384 8192;
#X obj 159 565 env~;
#X obj 162 546 - 90;
#X obj 200 543 - 90;
#X msg 52 89 set \$1;
#X obj 253 291 bng 15 250 50 0 empty empty 1 17 7 0 10 -262144 -258113
-1;
#X obj 255 385 bng 15 250 50 0 empty empty 0 18 8 0 10 -33289 -258113
-1;
#X obj 314 389 line;
#X msg 315 347 0;
#X msg 315 304 1;
#X msg 314 326 0.8;
#X obj 254 327 bng 15 250 50 0 empty empty 0_8 17 7 0 10 -191407 -258113
-1;
#X msg 314 368 \$1 100;
#X obj 109 277 vu 16 120 foo7_rcv Vu-in 0 -12 0 12 -1 -258113 1 0;
#X obj 198 525 env~ 16384 8192;
#X obj 154 525 env~;
#X obj 163 504 - 90;
#X obj 202 504 - 90;
#X obj 6 89 symbol;
#X obj 89 581 *~ 1;
#X obj 32 586 *~ 1;
#X obj 32 781 outlet~ LEFT;
#X obj 114 781 outlet~ RIGHT;
#X obj 60 677 / 1;
#X floatatom 47 618 5 0 0 0 - - -;
#X obj 336 779 outlet;
#X text 135 401 hz;
#X text 212 221 loop;
#X text 216 135 >sec - tot;
#X msg 51 59 http://stream.p-node.org/dab.mp3;
#X connect 1 0 7 0;
#X connect 2 0 23 0;
#X connect 3 0 23 0;
#X connect 4 0 23 0;
#X connect 5 0 4 0;
#X connect 6 0 5 0;
#X connect 7 0 21 0;
#X connect 8 0 23 0;
#X connect 9 0 8 0;
#X connect 9 0 49 0;
#X connect 10 0 9 0;
#X connect 11 0 23 0;
#X connect 12 0 5 0;
#X connect 18 0 15 0;
#X connect 18 1 13 0;
#X connect 18 2 14 0;
#X connect 18 3 16 0;
#X connect 18 4 19 0;
#X connect 18 5 17 0;
#X connect 18 5 70 0;
#X connect 20 0 23 0;
#X connect 22 0 68 0;
#X connect 23 0 60 0;
#X connect 23 0 59 0;
#X connect 23 0 65 0;
#X connect 23 1 64 0;
#X connect 23 2 18 0;
#X connect 24 0 6 0;
#X connect 25 0 12 0;
#X connect 26 0 2 0;
#X connect 27 0 11 0;
#X connect 28 0 3 0;
#X connect 29 0 23 0;
#X connect 30 0 29 0;
#X connect 34 0 63 0;
#X connect 36 0 20 0;
#X connect 37 0 36 0;
#X connect 40 0 66 0;
#X connect 40 0 46 0;
#X connect 40 0 45 0;
#X connect 41 0 67 0;
#X connect 42 0 43 0;
#X connect 42 1 44 0;
#X connect 45 0 48 0;
#X connect 46 0 47 0;
#X connect 47 0 42 0;
#X connect 48 0 42 1;
#X connect 49 0 39 0;
#X connect 50 0 54 0;
#X connect 51 0 53 0;
#X connect 52 0 1 0;
#X connect 53 0 57 0;
#X connect 54 0 57 0;
#X connect 55 0 57 0;
#X connect 56 0 55 0;
#X connect 57 0 52 0;
#X connect 59 0 62 0;
#X connect 60 0 61 0;
#X connect 61 0 58 0;
#X connect 62 0 58 1;
#X connect 63 0 8 0;
#X connect 63 0 49 0;
#X connect 64 0 41 0;
#X connect 65 0 40 0;
#X connect 68 0 40 1;
#X connect 68 0 41 1;
#X connect 69 0 40 1;
#X connect 74 0 63 0;
#X coords 0 -1 1 1 200 321 1 100 100;
